<?xml version="1.0" standalone="no"?><!DOCTYPE svg PUBLIC "-//W3C//DTD SVG 1.1//EN" "http://www.w3.org/Graphics/SVG/1.1/DTD/svg11.dtd"><svg t="1755345214171" class="icon" viewBox="0 0 1024 1024" version="1.1" xmlns="http://www.w3.org/2000/svg" p-id="10238" xmlns:xlink="http://www.w3.org/1999/xlink" width="200" height="200"><path d="M241.92 981.12c-3.2 0-6.4-1.92-7.04-5.12-1.92-5.12-2.56-10.88-2.56-16.64 0-28.8 23.04-51.84 51.84-51.84s51.84 23.04 51.84 51.84c0 5.76-0.64 10.88-2.56 16.64-1.28 3.84-5.76 6.4-9.6 4.48-3.84-1.28-6.4-5.76-4.48-9.6 1.28-3.84 1.92-7.68 1.92-11.52 0-20.48-16.64-36.48-36.48-36.48-20.48 0-36.48 16.64-36.48 36.48 0 3.84 0.64 7.68 1.92 11.52 1.28 3.84-0.64 8.32-4.48 9.6-2.56 0.64-3.2 0.64-3.84 0.64z" fill="#00ABE0" p-id="10239"></path><path d="M155.52 936.32h-0.64c-3.84-0.64-7.04-3.84-7.04-8.32 3.84-39.04 36.48-68.48 75.52-68.48 33.92 0 62.72 21.76 72.96 53.76 1.28 3.84-1.28 8.32-5.12 9.6-3.84 1.28-8.32-1.28-9.6-5.12-7.68-25.6-31.36-42.88-58.24-42.88-31.36 0-57.6 23.68-60.8 55.04 0 3.2-3.2 6.4-7.04 6.4z" fill="#00ABE0" p-id="10240"></path><path d="M199.04 981.12h-1.92c-3.84-0.64-6.4-5.12-5.76-8.96 0.64-1.92 0.64-4.48 0.64-6.4 0-16-12.8-28.8-28.8-28.8s-28.8 12.8-28.8 28.8c0 2.56 0 4.48 0.64 6.4 0.64 3.84-1.28 8.32-5.76 8.96-3.84 0.64-8.32-1.28-8.96-5.76-0.64-3.2-1.28-6.4-1.28-10.24 0-24.32 19.84-44.16 44.16-44.16 24.32 0 44.16 19.84 44.16 44.16 0 3.2-0.64 7.04-1.28 10.24s-3.84 5.76-7.04 5.76z" fill="#00ABE0" p-id="10241"></path><path d="M966.4 981.12H57.6c-4.48 0-7.68-3.2-7.68-7.68s3.2-7.68 7.68-7.68h908.8c4.48 0 7.68 3.2 7.68 7.68s-3.2 7.68-7.68 7.68zM549.76 943.36H474.24c-4.48 0-7.68-3.2-7.68-7.68v-287.36c0-4.48 3.2-7.68 7.68-7.68h75.52c4.48 0 7.68 3.2 7.68 7.68v287.36c0 4.48-3.2 7.68-7.68 7.68zM481.92 928h60.8v-272h-60.8V928z" fill="#211D1C" p-id="10242"></path><path d="M587.52 981.12H436.48c-4.48 0-7.68-3.2-7.68-7.68v-37.76c0-4.48 3.2-7.68 7.68-7.68h151.68c4.48 0 7.68 3.2 7.68 7.68v37.76c-0.64 4.48-3.84 7.68-8.32 7.68z m-144-15.36h136.32v-23.04H443.52v23.04zM929.28 656H94.72c-4.48 0-7.68-3.2-7.68-7.68V102.4c0-4.48 3.2-7.68 7.68-7.68h833.92c4.48 0 7.68 3.2 7.68 7.68v545.92c0 4.48-3.2 7.68-7.04 7.68zM102.4 640.64h819.2v-531.2H102.4v531.2z" fill="#211D1C" p-id="10243"></path><path d="M890.88 149.12c-4.48 0-7.68-3.2-7.68-7.68v-1.28c0-4.48 3.2-7.68 7.68-7.68s7.68 3.2 7.68 7.68v1.28c0 4.48-3.84 7.68-7.68 7.68zM890.88 597.76c-4.48 0-7.68-3.2-7.68-7.68v-3.2c0-4.48 3.2-7.68 7.68-7.68s7.68 3.2 7.68 7.68v3.2c0 4.48-3.84 7.68-7.68 7.68z m0-21.12c-4.48 0-7.68-3.2-7.68-7.68v-3.2c0-4.48 3.2-7.68 7.68-7.68s7.68 3.2 7.68 7.68v3.2c0 4.48-3.84 7.68-7.68 7.68z m0-21.12c-4.48 0-7.68-3.2-7.68-7.68v-3.2c0-4.48 3.2-7.68 7.68-7.68s7.68 3.2 7.68 7.68v3.2c0 3.84-3.84 7.68-7.68 7.68z m0-21.76c-4.48 0-7.68-3.2-7.68-7.68v-3.2c0-4.48 3.2-7.68 7.68-7.68s7.68 3.2 7.68 7.68v3.2c0 4.48-3.84 7.68-7.68 7.68z m0-21.12c-4.48 0-7.68-3.2-7.68-7.68v-3.2c0-4.48 3.2-7.68 7.68-7.68s7.68 3.2 7.68 7.68v3.2c0 3.84-3.84 7.68-7.68 7.68z m0-21.76c-4.48 0-7.68-3.2-7.68-7.68V480c0-4.48 3.2-7.68 7.68-7.68s7.68 3.2 7.68 7.68v3.2c0 4.48-3.84 7.68-7.68 7.68z m0-21.12c-4.48 0-7.68-3.2-7.68-7.68v-3.2c0-4.48 3.2-7.68 7.68-7.68s7.68 3.2 7.68 7.68v3.2c0 4.48-3.84 7.68-7.68 7.68z m0-21.12c-4.48 0-7.68-3.2-7.68-7.68v-3.2c0-4.48 3.2-7.68 7.68-7.68s7.68 3.2 7.68 7.68v3.2c0 3.84-3.84 7.68-7.68 7.68z m0-21.76c-4.48 0-7.68-3.2-7.68-7.68V416c0-4.48 3.2-7.68 7.68-7.68s7.68 3.2 7.68 7.68v3.2c0 4.48-3.84 7.68-7.68 7.68z m0-21.12c-4.48 0-7.68-3.2-7.68-7.68v-3.2c0-4.48 3.2-7.68 7.68-7.68s7.68 3.2 7.68 7.68v3.2c0 4.48-3.84 7.68-7.68 7.68z m0-21.76c-4.48 0-7.68-3.2-7.68-7.68v-3.2c0-4.48 3.2-7.68 7.68-7.68s7.68 3.2 7.68 7.68v3.2c0 4.48-3.84 7.68-7.68 7.68z m0-21.12c-4.48 0-7.68-3.2-7.68-7.68V352c0-4.48 3.2-7.68 7.68-7.68s7.68 3.2 7.68 7.68v3.2c0 4.48-3.84 7.68-7.68 7.68z m0-21.12c-4.48 0-7.68-3.2-7.68-7.68v-3.2c0-4.48 3.2-7.68 7.68-7.68s7.68 3.2 7.68 7.68v3.2c0 3.84-3.84 7.68-7.68 7.68z m0-21.76c-4.48 0-7.68-3.2-7.68-7.68v-3.2c0-4.48 3.2-7.68 7.68-7.68s7.68 3.2 7.68 7.68v3.2c0 4.48-3.84 7.68-7.68 7.68z m0-21.12c-4.48 0-7.68-3.2-7.68-7.68V288c0-4.48 3.2-7.68 7.68-7.68s7.68 3.2 7.68 7.68v3.2c0 4.48-3.84 7.68-7.68 7.68z m0-21.12c-4.48 0-7.68-3.2-7.68-7.68v-3.2c0-4.48 3.2-7.68 7.68-7.68s7.68 3.2 7.68 7.68v3.2c0 3.84-3.84 7.68-7.68 7.68z m0-21.76c-4.48 0-7.68-3.2-7.68-7.68v-3.2c0-4.48 3.2-7.68 7.68-7.68s7.68 3.2 7.68 7.68v3.2c0 4.48-3.84 7.68-7.68 7.68z m0-21.12c-4.48 0-7.68-3.2-7.68-7.68V224c0-4.48 3.2-7.68 7.68-7.68s7.68 3.2 7.68 7.68v3.2c0 4.48-3.84 7.68-7.68 7.68z m0-21.76c-4.48 0-7.68-3.2-7.68-7.68v-3.2c0-4.48 3.2-7.68 7.68-7.68s7.68 3.2 7.68 7.68v3.2c0 4.48-3.84 7.68-7.68 7.68z m0-21.12c-4.48 0-7.68-3.2-7.68-7.68v-3.2c0-4.48 3.2-7.68 7.68-7.68s7.68 3.2 7.68 7.68v3.2c0 4.48-3.84 7.68-7.68 7.68z m0-21.12c-4.48 0-7.68-3.2-7.68-7.68V160c0-4.48 3.2-7.68 7.68-7.68s7.68 3.2 7.68 7.68v3.2c0 3.84-3.84 7.68-7.68 7.68zM890.88 617.6h-1.28c-4.48 0-7.68-3.2-7.68-7.68 0-2.56 1.28-4.48 3.2-5.76 1.28-1.92 3.84-3.2 5.76-3.2 4.48 0 7.68 3.2 7.68 7.68v1.28c0 4.48-3.84 7.68-7.68 7.68zM870.4 617.6h-3.2c-4.48 0-7.68-3.2-7.68-7.68s3.2-7.68 7.68-7.68h3.2c4.48 0 7.68 3.2 7.68 7.68s-3.2 7.68-7.68 7.68z m-21.76 0h-3.2c-4.48 0-7.68-3.2-7.68-7.68s3.2-7.68 7.68-7.68h3.2c4.48 0 7.68 3.2 7.68 7.68s-3.2 7.68-7.68 7.68z m-21.12 0h-3.2c-4.48 0-7.68-3.2-7.68-7.68s3.2-7.68 7.68-7.68h3.2c4.48 0 7.68 3.2 7.68 7.68-0.64 4.48-3.84 7.68-7.68 7.68z m-21.76 0h-3.2c-4.48 0-7.68-3.2-7.68-7.68s3.2-7.68 7.68-7.68h3.2c4.48 0 7.68 3.2 7.68 7.68s-3.84 7.68-7.68 7.68z m-21.76 0h-3.2c-4.48 0-7.68-3.2-7.68-7.68s3.2-7.68 7.68-7.68h3.2c4.48 0 7.68 3.2 7.68 7.68s-3.2 7.68-7.68 7.68z m-21.76 0h-3.2c-4.48 0-7.68-3.2-7.68-7.68s3.2-7.68 7.68-7.68h3.2c4.48 0 7.68 3.2 7.68 7.68s-3.2 7.68-7.68 7.68z m-21.76 0h-3.2c-4.48 0-7.68-3.2-7.68-7.68s3.2-7.68 7.68-7.68h3.2c4.48 0 7.68 3.2 7.68 7.68s-3.2 7.68-7.68 7.68z m-21.12 0h-3.2c-4.48 0-7.68-3.2-7.68-7.68s3.2-7.68 7.68-7.68h3.2c4.48 0 7.68 3.2 7.68 7.68-0.64 4.48-3.84 7.68-7.68 7.68z m-21.76 0h-3.2c-4.48 0-7.68-3.2-7.68-7.68s3.2-7.68 7.68-7.68h3.2c4.48 0 7.68 3.2 7.68 7.68s-3.84 7.68-7.68 7.68z m-21.76 0h-3.2c-4.48 0-7.68-3.2-7.68-7.68s3.2-7.68 7.68-7.68h3.2c4.48 0 7.68 3.2 7.68 7.68s-3.84 7.68-7.68 7.68z m-21.76 0h-3.2c-4.48 0-7.68-3.2-7.68-7.68s3.2-7.68 7.68-7.68h3.2c4.48 0 7.68 3.2 7.68 7.68s-3.2 7.68-7.68 7.68z m-21.76 0h-3.2c-4.48 0-7.68-3.2-7.68-7.68s3.2-7.68 7.68-7.68h3.2c4.48 0 7.68 3.2 7.68 7.68s-3.2 7.68-7.68 7.68z m-21.12 0H608c-4.48 0-7.68-3.2-7.68-7.68s3.2-7.68 7.68-7.68h3.2c4.48 0 7.68 3.2 7.68 7.68-0.64 4.48-3.84 7.68-7.68 7.68z m-21.76 0h-3.2c-4.48 0-7.68-3.2-7.68-7.68s3.2-7.68 7.68-7.68h3.2c4.48 0 7.68 3.2 7.68 7.68s-3.84 7.68-7.68 7.68z m-21.76 0h-3.2c-4.48 0-7.68-3.2-7.68-7.68s3.2-7.68 7.68-7.68h3.2c4.48 0 7.68 3.2 7.68 7.68s-3.84 7.68-7.68 7.68z m-21.76 0h-3.2c-4.48 0-7.68-3.2-7.68-7.68s3.2-7.68 7.68-7.68h3.2c4.48 0 7.68 3.2 7.68 7.68s-3.2 7.68-7.68 7.68z m-21.76 0h-3.2c-4.48 0-7.68-3.2-7.68-7.68s3.2-7.68 7.68-7.68h3.2c4.48 0 7.68 3.2 7.68 7.68s-3.2 7.68-7.68 7.68z m-21.76 0H499.2c-4.48 0-7.68-3.2-7.68-7.68s3.2-7.68 7.68-7.68h3.2c4.48 0 7.68 3.2 7.68 7.68s-3.2 7.68-7.68 7.68z m-21.12 0h-3.2c-4.48 0-7.68-3.2-7.68-7.68s3.2-7.68 7.68-7.68h3.2c4.48 0 7.68 3.2 7.68 7.68-0.64 4.48-3.84 7.68-7.68 7.68z m-21.76 0h-3.2c-4.48 0-7.68-3.2-7.68-7.68s3.2-7.68 7.68-7.68h3.2c4.48 0 7.68 3.2 7.68 7.68s-3.84 7.68-7.68 7.68z m-21.76 0h-3.2c-4.48 0-7.68-3.2-7.68-7.68s3.2-7.68 7.68-7.68h3.2c4.48 0 7.68 3.2 7.68 7.68s-3.2 7.68-7.68 7.68z m-21.76 0h-3.2c-4.48 0-7.68-3.2-7.68-7.68s3.2-7.68 7.68-7.68h3.2c4.48 0 7.68 3.2 7.68 7.68s-3.2 7.68-7.68 7.68z m-21.76 0h-3.2c-4.48 0-7.68-3.2-7.68-7.68s3.2-7.68 7.68-7.68h3.2c4.48 0 7.68 3.2 7.68 7.68s-3.2 7.68-7.68 7.68z m-21.12 0h-3.2c-4.48 0-7.68-3.2-7.68-7.68s3.2-7.68 7.68-7.68h3.2c4.48 0 7.68 3.2 7.68 7.68-0.64 4.48-3.84 7.68-7.68 7.68z m-21.76 0h-3.2c-4.48 0-7.68-3.2-7.68-7.68s3.2-7.68 7.68-7.68h3.2c4.48 0 7.68 3.2 7.68 7.68s-3.84 7.68-7.68 7.68z m-21.76 0H326.4c-4.48 0-7.68-3.2-7.68-7.68s3.2-7.68 7.68-7.68h3.2c4.48 0 7.68 3.2 7.68 7.68s-3.84 7.68-7.68 7.68z m-21.76 0h-3.2c-4.48 0-7.68-3.2-7.68-7.68s3.2-7.68 7.68-7.68h3.2c4.48 0 7.68 3.2 7.68 7.68s-3.2 7.68-7.68 7.68z m-21.76 0h-3.2c-4.48 0-7.68-3.2-7.68-7.68s3.2-7.68 7.68-7.68h3.2c4.48 0 7.68 3.2 7.68 7.68s-3.2 7.68-7.68 7.68z m-21.12 0h-3.2c-4.48 0-7.68-3.2-7.68-7.68s3.2-7.68 7.68-7.68h3.2c4.48 0 7.68 3.2 7.68 7.68-0.64 4.48-3.84 7.68-7.68 7.68z m-21.76 0h-3.2c-4.48 0-7.68-3.2-7.68-7.68s3.2-7.68 7.68-7.68h3.2c4.48 0 7.68 3.2 7.68 7.68s-3.84 7.68-7.68 7.68z m-21.76 0h-3.2c-4.48 0-7.68-3.2-7.68-7.68s3.2-7.68 7.68-7.68h3.2c4.48 0 7.68 3.2 7.68 7.68s-3.84 7.68-7.68 7.68z m-21.76 0h-3.2c-4.48 0-7.68-3.2-7.68-7.68s3.2-7.68 7.68-7.68h3.2c4.48 0 7.68 3.2 7.68 7.68s-3.2 7.68-7.68 7.68z m-21.76 0h-3.2c-4.48 0-7.68-3.2-7.68-7.68s3.2-7.68 7.68-7.68h3.2c4.48 0 7.68 3.2 7.68 7.68s-3.2 7.68-7.68 7.68z m-21.76 0H153.6c-4.48 0-7.68-3.2-7.68-7.68s3.2-7.68 7.68-7.68h3.2c4.48 0 7.68 3.2 7.68 7.68-0.64 4.48-3.84 7.68-8.32 7.68zM135.04 617.6h-1.28c-4.48 0-7.68-3.2-7.68-7.68v-1.28c0-4.48 3.2-7.68 7.68-7.68 2.56 0 4.48 1.28 5.76 3.2 1.92 1.28 3.2 3.84 3.2 5.76-0.64 4.48-3.84 7.68-7.68 7.68zM133.12 597.76c-4.48 0-7.68-3.2-7.68-7.68v-3.2c0-4.48 3.2-7.68 7.68-7.68s7.68 3.2 7.68 7.68v3.2c0 4.48-3.2 7.68-7.68 7.68z m0-21.12c-4.48 0-7.68-3.2-7.68-7.68v-3.2c0-4.48 3.2-7.68 7.68-7.68s7.68 3.2 7.68 7.68v3.2c0 4.48-3.2 7.68-7.68 7.68z m0-21.12c-4.48 0-7.68-3.2-7.68-7.68v-3.2c0-4.48 3.2-7.68 7.68-7.68s7.68 3.2 7.68 7.68v3.2c0 3.84-3.2 7.68-7.68 7.68z m0-21.76c-4.48 0-7.68-3.2-7.68-7.68v-3.2c0-4.48 3.2-7.68 7.68-7.68s7.68 3.2 7.68 7.68v3.2c0 4.48-3.2 7.68-7.68 7.68z m0-21.12c-4.48 0-7.68-3.2-7.68-7.68v-3.2c0-4.48 3.2-7.68 7.68-7.68s7.68 3.2 7.68 7.68v3.2c0 3.84-3.2 7.68-7.68 7.68z m0-21.76c-4.48 0-7.68-3.2-7.68-7.68V480c0-4.48 3.2-7.68 7.68-7.68s7.68 3.2 7.68 7.68v3.2c0 4.48-3.2 7.68-7.68 7.68z m0-21.12c-4.48 0-7.68-3.2-7.68-7.68v-3.2c0-4.48 3.2-7.68 7.68-7.68s7.68 3.2 7.68 7.68v3.2c0 4.48-3.2 7.68-7.68 7.68z m0-21.12c-4.48 0-7.68-3.2-7.68-7.68v-3.2c0-4.48 3.2-7.68 7.68-7.68s7.68 3.2 7.68 7.68v3.2c0 3.84-3.2 7.68-7.68 7.68z m0-21.76c-4.48 0-7.68-3.2-7.68-7.68V416c0-4.48 3.2-7.68 7.68-7.68s7.68 3.2 7.68 7.68v3.2c0 4.48-3.2 7.68-7.68 7.68z m0-21.12c-4.48 0-7.68-3.2-7.68-7.68v-3.2c0-4.48 3.2-7.68 7.68-7.68s7.68 3.2 7.68 7.68v3.2c0 4.48-3.2 7.68-7.68 7.68z m0-21.76c-4.48 0-7.68-3.2-7.68-7.68v-3.2c0-4.48 3.2-7.68 7.68-7.68s7.68 3.2 7.68 7.68v3.2c0 4.48-3.2 7.68-7.68 7.68z m0-21.12c-4.48 0-7.68-3.2-7.68-7.68V352c0-4.48 3.2-7.68 7.68-7.68s7.68 3.2 7.68 7.68v3.2c0 4.48-3.2 7.68-7.68 7.68z m0-21.12c-4.48 0-7.68-3.2-7.68-7.68v-3.2c0-4.48 3.2-7.68 7.68-7.68s7.68 3.2 7.68 7.68v3.2c0 3.84-3.2 7.68-7.68 7.68z m0-21.76c-4.48 0-7.68-3.2-7.68-7.68v-3.2c0-4.48 3.2-7.68 7.68-7.68s7.68 3.2 7.68 7.68v3.2c0 4.48-3.2 7.68-7.68 7.68z m0-21.12c-4.48 0-7.68-3.2-7.68-7.68V288c0-4.48 3.2-7.68 7.68-7.68s7.68 3.2 7.68 7.68v3.2c0 4.48-3.2 7.68-7.68 7.68z m0-21.12c-4.48 0-7.68-3.2-7.68-7.68v-3.2c0-4.48 3.2-7.68 7.68-7.68s7.68 3.2 7.68 7.68v3.2c0 3.84-3.2 7.68-7.68 7.68z m0-21.76c-4.48 0-7.68-3.2-7.68-7.68v-3.2c0-4.48 3.2-7.68 7.68-7.68s7.68 3.2 7.68 7.68v3.2c0 4.48-3.2 7.68-7.68 7.68z m0-21.12c-4.48 0-7.68-3.2-7.68-7.68V224c0-4.48 3.2-7.68 7.68-7.68s7.68 3.2 7.68 7.68v3.2c0 4.48-3.2 7.68-7.68 7.68z m0-21.76c-4.48 0-7.68-3.2-7.68-7.68v-3.2c0-4.48 3.2-7.68 7.68-7.68s7.68 3.2 7.68 7.68v3.2c0 4.48-3.2 7.68-7.68 7.68z m0-21.12c-4.48 0-7.68-3.2-7.68-7.68v-3.2c0-4.48 3.2-7.68 7.68-7.68s7.68 3.2 7.68 7.68v3.2c0 4.48-3.2 7.68-7.68 7.68z m0-21.12c-4.48 0-7.68-3.2-7.68-7.68V160c0-4.48 3.2-7.68 7.68-7.68s7.68 3.2 7.68 7.68v3.2c0 3.84-3.2 7.68-7.68 7.68zM133.12 149.12c-4.48 0-7.68-3.2-7.68-7.68v-1.28c0-4.48 3.2-7.68 7.68-7.68s7.68 3.2 7.68 7.68v1.28c0 4.48-3.2 7.68-7.68 7.68z" fill="#211D1C" p-id="10244"></path><path d="M814.72 72.32H208.64c-4.48 0-7.68-3.2-7.68-7.68s3.2-7.68 7.68-7.68h606.08c4.48 0 7.68 3.2 7.68 7.68s-3.2 7.68-7.68 7.68z" fill="#00ABE0" p-id="10245"></path><path d="M814.72 147.84c-4.48 0-7.68-3.2-7.68-7.68V64.64c0-4.48 3.2-7.68 7.68-7.68s7.68 3.2 7.68 7.68v75.52c0 4.48-3.2 7.68-7.68 7.68zM512 147.84c-4.48 0-7.68-3.2-7.68-7.68V64.64c0-4.48 3.2-7.68 7.68-7.68s7.68 3.2 7.68 7.68v75.52c0 4.48-3.2 7.68-7.68 7.68zM208.64 147.84c-4.48 0-7.68-3.2-7.68-7.68V64.64c0-4.48 3.2-7.68 7.68-7.68s7.68 3.2 7.68 7.68v75.52c0 4.48-3.2 7.68-7.68 7.68z" fill="#00ABE0" p-id="10246"></path><path d="M853.12 185.6h-75.52c-4.48 0-7.68-3.2-7.68-7.68v-37.76c0-4.48 3.2-7.68 7.68-7.68h75.52c4.48 0 7.68 3.2 7.68 7.68v37.76c-0.64 4.48-3.84 7.68-7.68 7.68z m-68.48-14.72h60.8v-23.04h-60.8v23.04zM247.04 185.6H170.88c-4.48 0-7.68-3.2-7.68-7.68v-37.76c0-4.48 3.2-7.68 7.68-7.68h75.52c4.48 0 7.68 3.2 7.68 7.68v37.76c0 4.48-3.2 7.68-7.04 7.68z m-68.48-14.72h60.8v-23.04h-60.8v23.04zM549.76 185.6H474.24c-4.48 0-7.68-3.2-7.68-7.68v-37.76c0-4.48 3.2-7.68 7.68-7.68h75.52c4.48 0 7.68 3.2 7.68 7.68v37.76c0 4.48-3.2 7.68-7.68 7.68z m-67.84-14.72h60.8v-23.04h-60.8v23.04z" fill="#00ABE0" p-id="10247"></path><path d="M739.2 147.84h-1.28c-4.48 0-7.68-3.2-7.68-7.68s3.2-7.68 7.68-7.68h1.28c4.48 0 7.68 3.2 7.68 7.68s-3.2 7.68-7.68 7.68zM719.36 147.84h-3.2c-4.48 0-7.68-3.2-7.68-7.68s3.2-7.68 7.68-7.68h3.2c4.48 0 7.68 3.2 7.68 7.68-0.64 4.48-3.84 7.68-7.68 7.68z m-21.76 0h-3.2c-4.48 0-7.68-3.2-7.68-7.68s3.2-7.68 7.68-7.68h3.2c4.48 0 7.68 3.2 7.68 7.68s-3.84 7.68-7.68 7.68z m-21.76 0h-3.2c-4.48 0-7.68-3.2-7.68-7.68s3.2-7.68 7.68-7.68h3.2c4.48 0 7.68 3.2 7.68 7.68s-3.84 7.68-7.68 7.68z m-21.76 0h-3.2c-4.48 0-7.68-3.2-7.68-7.68s3.2-7.68 7.68-7.68h3.2c4.48 0 7.68 3.2 7.68 7.68s-3.2 7.68-7.68 7.68z m-21.76 0h-3.2c-4.48 0-7.68-3.2-7.68-7.68s3.2-7.68 7.68-7.68h3.2c4.48 0 7.68 3.2 7.68 7.68s-3.2 7.68-7.68 7.68z m-21.12 0H608c-4.48 0-7.68-3.2-7.68-7.68s3.2-7.68 7.68-7.68h3.2c4.48 0 7.68 3.2 7.68 7.68-0.64 4.48-3.84 7.68-7.68 7.68zM589.44 147.84h-1.28c-4.48 0-7.68-3.2-7.68-7.68s3.2-7.68 7.68-7.68h1.28c4.48 0 7.68 3.2 7.68 7.68s-3.84 7.68-7.68 7.68z" fill="#211D1C" p-id="10248"></path><path d="M436.48 147.84H435.2c-4.48 0-7.68-3.2-7.68-7.68s3.2-7.68 7.68-7.68h1.28c4.48 0 7.68 3.2 7.68 7.68-0.64 4.48-3.84 7.68-7.68 7.68zM416 147.84h-3.2c-4.48 0-7.68-3.2-7.68-7.68s3.2-7.68 7.68-7.68h3.2c4.48 0 7.68 3.2 7.68 7.68s-3.2 7.68-7.68 7.68z m-21.76 0h-3.2c-4.48 0-7.68-3.2-7.68-7.68s3.2-7.68 7.68-7.68h3.2c4.48 0 7.68 3.2 7.68 7.68s-3.2 7.68-7.68 7.68z m-21.12 0h-3.2c-4.48 0-7.68-3.2-7.68-7.68s3.2-7.68 7.68-7.68h3.2c4.48 0 7.68 3.2 7.68 7.68-0.64 4.48-3.84 7.68-7.68 7.68z m-21.76 0h-3.2c-4.48 0-7.68-3.2-7.68-7.68s3.2-7.68 7.68-7.68h3.2c4.48 0 7.68 3.2 7.68 7.68s-3.84 7.68-7.68 7.68z m-21.76 0H326.4c-4.48 0-7.68-3.2-7.68-7.68s3.2-7.68 7.68-7.68h3.2c4.48 0 7.68 3.2 7.68 7.68s-3.84 7.68-7.68 7.68z m-21.76 0h-3.2c-4.48 0-7.68-3.2-7.68-7.68s3.2-7.68 7.68-7.68h3.2c4.48 0 7.68 3.2 7.68 7.68s-3.2 7.68-7.68 7.68zM286.08 147.84h-1.28c-4.48 0-7.68-3.2-7.68-7.68s3.2-7.68 7.68-7.68h1.28c4.48 0 7.68 3.2 7.68 7.68s-3.2 7.68-7.68 7.68z" fill="#211D1C" p-id="10249"></path><path d="M808.32 981.12H774.4c-4.48 0-7.68-3.2-7.68-7.68v-62.72c0-4.48 3.2-7.68 7.68-7.68s7.68 3.2 7.68 7.68v55.04h19.2v-55.04c0-4.48 3.2-7.68 7.68-7.68s7.68 3.2 7.68 7.68v62.72c-0.64 4.48-4.48 7.68-8.32 7.68z" fill="#211D1C" p-id="10250"></path><path d="M791.04 921.6c-20.48 0-39.04-10.24-49.28-26.88h-0.64c-31.36 0-57.6-25.6-57.6-57.6 0-28.8 21.12-52.48 48.64-56.96 3.2-29.44 28.16-51.84 58.24-51.84 30.08 0 55.04 22.4 58.24 51.84 28.16 3.84 48.64 27.52 48.64 56.96 0 32-26.24 57.6-57.6 57.6-9.6 16.64-28.16 26.88-48.64 26.88z m-45.44-42.24c2.56 0 5.12 1.28 6.4 3.84 7.68 14.08 22.4 23.04 38.4 23.04s30.72-8.96 38.4-23.04c1.28-2.56 4.48-4.48 7.68-3.84h3.84c23.04 0 42.24-19.2 42.24-42.24 0-23.04-17.92-41.6-40.96-42.24-3.84 0-7.68-3.2-7.68-7.68 0-23.68-19.84-43.52-43.52-43.52-24.32 0-43.52 19.84-43.52 43.52 0 3.84-3.2 7.68-7.68 7.68-23.04 0.64-40.96 19.2-40.96 42.24 0 23.04 19.2 42.24 42.24 42.24h5.12z" fill="#00ABE0" p-id="10251"></path></svg>