<?xml version="1.0" standalone="no"?><!DOCTYPE svg PUBLIC "-//W3C//DTD SVG 1.1//EN" "http://www.w3.org/Graphics/SVG/1.1/DTD/svg11.dtd"><svg t="1755345187859" class="icon" viewBox="0 0 1024 1024" version="1.1" xmlns="http://www.w3.org/2000/svg" p-id="8173" xmlns:xlink="http://www.w3.org/1999/xlink" width="200" height="200"><path d="M984.248978 501.054689a479.461347 479.461347 0 0 0-67.243946-245.30235c-86.249554-105.242781-217.258244-172.499109-364.016207-172.499109-259.776328 0-470.360941 210.596995-470.360941 470.373323 0 142.932078 63.839033 270.882536 164.463513 357.156854a479.609925 479.609925 0 0 0 254.551333 72.852767c266.128039 0 482.606248-216.478209 482.606248-482.581485zM594.924978 425.849436c22.100984-12.76533 44.152442-15.934995 49.266003-7.094602s-8.667053 26.34784-30.780418 39.11317-44.152442 15.934995-49.266003 7.094602 8.72896-26.360221 30.780418-39.11317z m-30.780418 111.309717c5.113561-8.840394 27.165019-5.658347 49.266003 7.094602s35.906361 30.272776 30.780418 39.11317-27.165019 5.658347-49.266003-7.094602-35.832072-30.248013-30.730892-39.11317z m-62.526593-200.716555c10.21474 0 18.485585 20.689493 18.485585 46.207772s-8.270844 46.207772-18.485585 46.207771-18.473203-20.689493-18.473204-46.207771 8.32037-46.207772 18.52273-46.207772z m-93.29463 239.829725c-22.100984 12.752949-44.152442 15.934995-49.266003 7.094602s8.667053-26.34784 30.780418-39.11317 44.152442-15.934995 49.253622-7.094602-8.617527 26.34784-30.718511 39.11317z m30.768037-111.309717c-5.101179 8.840394-27.152637 5.658347-49.253622-7.094602s-35.906361-30.272776-30.780418-39.11317 27.165019-5.670729 49.266003 7.094602 35.931124 30.272776 30.817563 39.11317z m44.053389 154.508784c0-25.518279 8.270844-46.207772 18.473204-46.207772s18.485585 20.689493 18.485585 46.207772-8.270844 46.207772-18.485585 46.207771-18.423677-20.689493-18.423678-46.207771z" fill="#C0C63E" p-id="8174"></path><path d="M983.815626 364.78386a500.930874 500.930874 0 0 1 18.918937 136.270829c0 276.738988-224.328083 501.06707-501.06707 501.06707a500.893729 500.893729 0 0 1-146.81987-21.915261 468.404664 468.404664 0 0 0 198.104058 43.793378C812.839442 1023.95035 1023.386911 813.464788 1023.386911 553.626553a468.553242 468.553242 0 0 0-39.571285-188.842693z" fill="#C0C63E" p-id="8175"></path><path d="M1002.734563 501.054689a500.930874 500.930874 0 0 0-18.918937-136.270829C924.446316 154.31068 731.121518 0 501.667493 0 224.940887 0 0.612804 224.328083 0.612804 501.054689c0 225.640522 149.159974 416.389967 354.234819 479.16419a500.893729 500.893729 0 0 0 146.81987 21.915262c276.738988-0.012382 501.06707-224.340464 501.06707-501.079452z m-983.636174 0c0-266.090895 216.478209-482.569104 482.569104-482.569104 176.572623 0 331.217604 95.337578 415.337539 237.266754a479.461347 479.461347 0 0 1 67.243946 245.30235c0 266.103276-216.478209 482.581485-482.581485 482.581485a479.609925 479.609925 0 0 1-254.551333-72.852767C110.350071 825.49961 19.098389 673.764283 19.098389 501.054689z" fill="#8CBE46" p-id="8176"></path><path d="M483.181908 382.65037a46.207772 18.485585 90 1 0 36.97117 0 46.207772 18.485585 90 1 0-36.97117 0Z" fill="" p-id="8177"></path><path d="M483.181908 619.47139a46.207772 18.485585 90 1 0 36.97117 0 46.207772 18.485585 90 1 0-36.97117 0Z" fill="" p-id="8178"></path><path d="M408.372863 425.849436c-22.100984-12.76533-44.152442-15.934995-49.266003-7.094602s8.667053 26.34784 30.780418 39.11317 44.152442 15.934995 49.253622 7.094602-8.667053-26.360221-30.768037-39.11317zM594.924978 576.272323c22.100984 12.752949 44.152442 15.934995 49.266003 7.094602s-8.667053-26.34784-30.780418-39.11317-44.152442-15.934995-49.266003-7.094602 8.72896 26.34784 30.780418 39.11317zM389.887278 544.253755c-22.100984 12.76533-35.906361 30.272776-30.780418 39.11317s27.165019 5.658347 49.266003-7.094602 35.906361-30.272776 30.768037-39.11317-27.152637-5.658347-49.253622 7.094602zM613.497234 457.868004c22.100984-12.76533 35.906361-30.272776 30.780418-39.11317s-27.165019-5.670729-49.266003 7.094602-35.906361 30.272776-30.780418 39.11317 27.127874 5.658347 49.266003-7.094602z" fill="" p-id="8179"></path></svg>